<svg width="99" height="79" viewBox="0 0 99 79" fill="none" xmlns="http://www.w3.org/2000/svg">
<circle cx="47.5" cy="30.5" r="29" fill="#F4F2F2" stroke="#545353" stroke-width="3"/>
<path d="M0.975 74.724C0.975 75.777 1.274 76.609 1.885 77.207C2.496 77.805 3.289 78.104 4.251 78.104C5.213 78.104 5.993 77.805 6.604 77.22C7.215 76.622 7.527 75.79 7.527 74.724V68.9H6.097V74.789C6.097 76.037 5.46 76.752 4.251 76.752C3.042 76.752 2.405 76.037 2.405 74.789V68.9H0.975V74.724ZM13.3362 74.282C14.2202 74.282 14.9092 74.035 15.4032 73.528C15.9102 73.021 16.1572 72.384 16.1572 71.591C16.1572 70.798 15.9102 70.161 15.4032 69.654C14.9092 69.147 14.2202 68.9 13.3362 68.9H10.0732V78H11.5032V74.282H13.3362ZM11.5032 72.93V70.252H13.4012C14.2202 70.252 14.7012 70.746 14.7012 71.591C14.7012 72.436 14.2202 72.93 13.4012 72.93H11.5032ZM18.3531 78H23.7091V76.648H19.7831V68.9H18.3531V78ZM26.2543 70.018C25.4613 70.824 25.0583 71.968 25.0583 73.45C25.0583 74.932 25.4613 76.076 26.2543 76.895C27.0603 77.701 28.0483 78.104 29.2313 78.104C30.4143 78.104 31.4023 77.701 32.1953 76.895C33.0013 76.076 33.4043 74.932 33.4043 73.45C33.4043 71.968 33.0013 70.824 32.1953 70.018C31.4023 69.199 30.4143 68.796 29.2313 68.796C28.0483 68.796 27.0603 69.199 26.2543 70.018ZM31.1683 70.993C31.6883 71.552 31.9483 72.371 31.9483 73.45C31.9483 74.529 31.6883 75.348 31.1683 75.907C30.6613 76.466 30.0113 76.752 29.2313 76.752C28.4513 76.752 27.8013 76.466 27.2813 75.907C26.7743 75.348 26.5143 74.529 26.5143 73.45C26.5143 72.371 26.7743 71.552 27.2813 70.993C27.8013 70.434 28.4513 70.148 29.2313 70.148C30.0113 70.148 30.6613 70.434 31.1683 70.993ZM34.5949 78H36.0509L36.8049 75.738H40.0549L40.8089 78H42.2649L39.1059 68.9H37.7539L34.5949 78ZM39.6259 74.386H37.2339L38.4299 70.707L39.6259 74.386ZM44.056 78H46.734C47.904 78 48.892 77.61 49.698 76.817C50.517 76.024 50.92 74.906 50.92 73.45C50.92 71.994 50.517 70.876 49.698 70.083C48.892 69.29 47.904 68.9 46.734 68.9H44.056V78ZM46.318 70.252C47.917 70.252 49.464 70.967 49.464 73.45C49.464 75.933 47.917 76.648 46.318 76.648H45.486V70.252H46.318ZM58.8846 78V68.9H57.4546V78H58.8846ZM63.102 78V71.864L65.117 77.168H66.131L68.146 71.864V78H69.576V68.9H67.886L65.624 74.958L63.362 68.9H61.672V78H63.102ZM71.5637 78H73.0197L73.7737 75.738H77.0237L77.7777 78H79.2337L76.0747 68.9H74.7227L71.5637 78ZM76.5947 74.386H74.2027L75.3987 70.707L76.5947 74.386ZM88.3945 78V73.411H85.1965V74.672H86.9645C86.8475 75.868 86.0805 76.752 84.7285 76.752C83.0775 76.752 81.9725 75.634 81.9725 73.45C81.9725 71.318 83.1035 70.148 84.7285 70.148C85.8335 70.148 86.6135 70.772 87.0425 72.007L88.3555 71.604C88.1605 70.759 87.7445 70.083 87.1075 69.576C86.4705 69.056 85.6775 68.796 84.7285 68.796C83.5455 68.796 82.5575 69.199 81.7385 69.992C80.9195 70.785 80.5165 71.942 80.5165 73.45C80.5165 74.958 80.9195 76.115 81.7125 76.908C82.5185 77.701 83.4935 78.104 84.6505 78.104C85.8335 78.104 86.6655 77.532 87.0425 76.869L87.1465 78H88.3945ZM90.7646 78H96.2896V76.648H92.1946V73.84H95.3926V72.488H92.1946V70.252H96.1596V68.9H90.7646V78Z" fill="#545353"/>
<path d="M44.52 27.59H32.2V34.03H44.52V46.42H50.96V34.03H63.35V27.59H50.96V15.27H44.52V27.59Z" fill="#545353"/>
</svg>
